<?xml version="1.0" encoding="UTF-8" standalone="no"?>
<!-- Created with Inkscape (http://www.inkscape.org/) -->

<svg
   version="1.1"
   id="svg1"
   width="51.359"
   height="32.173"
   viewBox="0 0 51.359 32.173"
   sodipodi:docname="speleo.th2setline-rimstone-pool.svg"
   inkscape:version="1.3.2 (091e20ef0f, 2023-11-25, custom)"
   xmlns:inkscape="http://www.inkscape.org/namespaces/inkscape"
   xmlns:sodipodi="http://sodipodi.sourceforge.net/DTD/sodipodi-0.dtd"
   xmlns="http://www.w3.org/2000/svg"
   xmlns:svg="http://www.w3.org/2000/svg">
  <defs
     id="defs1" />
  <sodipodi:namedview
     id="namedview1"
     pagecolor="#ffffff"
     bordercolor="#000000"
     borderopacity="0.25"
     inkscape:showpageshadow="2"
     inkscape:pageopacity="0.0"
     inkscape:pagecheckerboard="0"
     inkscape:deskcolor="#d1d1d1"
     inkscape:current-layer="svg1" />
  <g
     id="g1">
    <path
       d="m 10.776,14.417 c 0.587,1.227 2.267,1.707 3.174,2.8 1.253,-0.72 1.893,-3.093 3.36,-2.24 0.813,0.947 2.319,0.613 3.093,-0.56 v 0 z"
       style="fill:#231f20;fill-opacity:1;fill-rule:evenodd;stroke:none;stroke-width:1.3333"
       id="path715" />
    <path
       d="m 10.59,13.857 c 0.293,1.667 2.32,2.107 3.36,3.36 1.253,-0.72 1.893,-3.093 3.36,-2.24 0.92,1.093 2.773,0.493 3.359,-1.12"
       style="fill:none;stroke:#231f20;stroke-width:0.79998;stroke-linecap:round;stroke-linejoin:round;stroke-miterlimit:10;stroke-dasharray:none;stroke-opacity:1"
       id="path716" />
    <path
       d="m 30.869,14.417 c 0.6,1.227 2.267,1.707 3.187,2.8 1.24,-0.72 1.88,-3.093 3.36,-2.24 0.8,0.947 2.32,0.613 3.08,-0.56 v 0 z"
       style="fill:#231f20;fill-opacity:1;fill-rule:evenodd;stroke:none;stroke-width:1.3333"
       id="path717" />
    <path
       d="m 30.696,13.857 c 0.293,1.667 2.306,2.107 3.36,3.36 1.24,-0.72 1.88,-3.093 3.36,-2.24 0.906,1.093 2.76,0.493 3.36,-1.12"
       style="fill:none;stroke:#231f20;stroke-width:0.79998;stroke-linecap:round;stroke-linejoin:round;stroke-miterlimit:10;stroke-dasharray:none;stroke-opacity:1"
       id="path718" />
  </g>
</svg>
