<?xml version="1.0" encoding="utf-8" standalone="no"?>
<svg
    xmlns="http://www.w3.org/2000/svg"
    xmlns:therion="http://therion.speleo.sk/therion"
    xmlns:sodipodi="http://sodipodi.sourceforge.net/DTD/sodipodi-0.dtd"
    xmlns:inkscape="http://www.inkscape.org/namespaces/inkscape"
    xmlns:xlink="http://www.w3.org/1999/xlink">
  <sodipodi:namedview inkscape:object-nodes="true" inkscape:snap-object-midpoints="true" inkscape:document-units="mm" units="mm">
    <inkscape:grid
		type="xygrid"
		empspacing="10"
		units="mm"
		spacingx="1mm"
		spacingy="1mm" />
  </sodipodi:namedview>
  <defs>
    <!-- Patterns -->
    <pattern id="pattern-water" width="3" height="30" patternUnits="userSpaceOnUse" patternTransform="rotate(135)">
      <path d="m 1.5,0 0,30" style="stroke:black;fill:none;stroke-width:0.25" />
    </pattern>
    <!-- Markers -->
    <marker id="PointInStart" orient="auto">
      <path d="m0.5,-0.5 0,-3" style="fill:none;stroke:#cc0;stroke-width:1;stroke-opacity:0.7;marker-start:none;marker-end:none" />
    </marker>
    <marker id="PointInEnd" orient="auto">
      <path d="m-0.5,-0.5 0,-3" style="fill:none;stroke:#06c;stroke-width:1;stroke-opacity:0.7;marker-start:none;marker-end:none" />
    </marker>
	<marker id="ArrowEnd" orient="auto">
	  <path d="M 5,4 -5,0 5,-4 C 3,-2 3,2 5,4 z"
		style="stroke:none;fill:black"
		transform="scale(0.6) rotate(180)" />
	</marker>
	<marker id="ArrowStart" orient="auto">
	  <path d="M 5,4 -5,0 5,-4 C 3,-2 3,2 5,4 z"
		style="stroke:none;fill:black"
		transform="scale(0.6)" />
	</marker>
	<marker id="ArrowSection" orient="auto">
      <path d="m0,0 0,-8" style="fill:none;stroke:#000;stroke-width:1;marker-start:none;marker-end:url(#ArrowEnd)" />
	</marker>
	<marker id="ArrowGradient" orient="auto">
      <path d="m -2.5,-2 5,2 -5,2 0,-4 z" style="fill:black;stroke:black;stroke-width:0.75;stroke-linejoin:round;" transform="scale(1.5)" />
	</marker>
    <!-- Symbols -->
<!--
    <g id="point-station:permanent">
      <path d="M-2,1 h4 L0,-2 Z" style="fill:#06c;fill-opacity:0.7;stroke:#00c;stroke-width:0.5;stroke-linejoin:round;" />
      <path d="M0,-0.5 v1 M-0.5,0 h1" style="fill:none;stroke:#009;stroke-width:0.2;stroke-linecap:round;" />
    </g>
-->
    <symbol id="point-station">
      <path d="M-2,0 h4 M0,-2 v4" style="fill:none;stroke:#00c;stroke-width:0.4" />
	  <circle r="1" style="fill:#06c;fill-opacity:0.7;stroke:#00c;stroke-width:0.4" />
    </symbol>
    <symbol id="point-guano">
      <path d="m -6,-3.8259503 c 2.9,-2.4 6,2.2 6,8.3 0,-6.1 3.2,-10.7 6,-8.3" style="fill:none;stroke:black;stroke-width:0.75;stroke-linecap:round;stroke-linejoin:round;stroke-miterlimit:10" />
    </symbol>
    <symbol id="point-dig">
      <path d="m 5.5252153,7.1202153 c 1.06,1.06 2.65,-0.53 1.59,-1.59 l -6.89,-6.9 2.38,-2.38 -3.71,-3.72 -6.36,6.37 3.71,3.71 2.39,-2.39 z" style="fill:black;fill-rule:evenodd;stroke:none" />
    </symbol>
    <symbol id="point-flowstone-choke">
      <path style="fill:none;stroke:black;stroke-width:0.75;stroke-linecap:round;stroke-linejoin:round;stroke-miterlimit:10" d="m 5.985,1.5 c -2.2,0 -3.8,-1.61 -3,-3 -1.5,0.56 -3,-1.03 -3,-3 m 6,9 c -2.2,0 -3.8,-1.61 -3,-3 -1.5,0.56 -3,-1.03 -3,-3 m -5.97,3 c 2.19,0 3.8,-1.61 3,-3 1.57,0.56 2.97,-1.03 2.97,-3 m -5.97,9 c 2.19,0 3.8,-1.61 3,-3 1.57,0.56 2.97,-1.03 2.97,-3" />
    </symbol>
    <symbol id="point-continuation">
      <path d="m -1.5,-2.51 c 0,-2 3,-2 3,0 0,1.4 -1.5,2.35 -1.5,3.75" style="fill:none;stroke:black;stroke-width:0.75;stroke-linecap:round;stroke-linejoin:round;stroke-miterlimit:10" />
      <path d="m 0,3.49 0,0" style="fill:none;stroke:black;stroke-width:1.79999995;stroke-linecap:round;stroke-linejoin:round;stroke-miterlimit:10" />
    </symbol>
    <symbol id="point-sink">
      <path d="m -4.51,3.02 c 0,-3.12 1.7,-5.99 4.51,-5.99 2.81,0 4.49,2.87 4.49,5.99" style="fill:none;stroke:black;stroke-width:0.75;stroke-linecap:round;stroke-linejoin:round;stroke-miterlimit:10" />
    </symbol>
    <symbol id="point-spring">
      <path d="m -4.5,-3 c 0,3 1.7,6 4.5,6 2.81,0 4.5,-3 4.5,-6" style="fill:none;stroke:black;stroke-width:0.75;stroke-linecap:round;stroke-linejoin:round;stroke-miterlimit:10" />
    </symbol>
    <symbol id="point-air-draught">
      <path d="M 0,-15 0,11.3" style="fill:none;stroke:black;stroke-width:0.75;stroke-linecap:round;stroke-linejoin:round;stroke-miterlimit:10" />
      <path d="M 2.99,-9.73 C 0.942,-10.5 0,-12.7 0,-15 m -3.01,5.27 C -0.945,-10.5 0,-12.7 0,-15" style="fill:none;stroke:black;stroke-width:0.75;stroke-linecap:round;stroke-linejoin:round;stroke-miterlimit:10" />
      <path d="m 0,6.03 2.99,3 M 0,9.03 2.99,12 M 0,12 2.99,15" style="fill:none;stroke:black;stroke-width:0.75;stroke-linecap:round;stroke-linejoin:round;stroke-miterlimit:10" />
    </symbol>
    <symbol id="point-low-end">
      <path style="fill:none;stroke:black;stroke-width:0.75;stroke-linecap:round;stroke-linejoin:round;stroke-miterlimit:10" d="m -6.01,-1.47 12,0 m -12,2.99 12,0" />
    </symbol>
    <symbol id="point-narrow-end">
      <path style="fill:none;stroke:black;stroke-width:0.75;stroke-linecap:round;stroke-linejoin:round;stroke-miterlimit:10" d="m 1.49,6.03 0,-12 m -3,12 0,-12" />
    </symbol>
    <symbol id="point-blocks">
      <path d="m -7.25,7.5 12,-1.5 -7,-9 z" style="fill:none;stroke:black;stroke-width:0.75;stroke-linecap:round;stroke-linejoin:round;stroke-miterlimit:10" />
      <path d="m 4,3.75 3.75,-1.5 -3,-9.75 -6,0 z" style="fill:none;stroke:black;stroke-width:0.75;stroke-linecap:round;stroke-linejoin:round;stroke-miterlimit:10" />
      <path d="m -3.75,0 2.5,-4.5 -6,-0.75 z" style="fill:none;stroke:black;stroke-width:0.75;stroke-linecap:round;stroke-linejoin:round;stroke-miterlimit:10" />
      <path d="m -7.25,7.5 6,-4.5 -1,-6" style="fill:none;stroke:black;stroke-width:0.52499998;stroke-linecap:round;stroke-linejoin:round;stroke-miterlimit:10" />
      <path d="m -1.25,3 6,3" style="fill:none;stroke:black;stroke-width:0.52499998;stroke-linecap:round;stroke-linejoin:round;stroke-miterlimit:10" />
      <path d="M 4,3.75 4.75,0 3.25,-3 -1.25,-7.5" style="fill:none;stroke:black;stroke-width:0.52499998;stroke-linecap:round;stroke-linejoin:round;stroke-miterlimit:10" />
      <path d="M 4.75,-7.5 3.25,-3" style="fill:none;stroke:black;stroke-width:0.52499998;stroke-linecap:round;stroke-linejoin:round;stroke-miterlimit:10" />
      <path d="M 7.75,2.25 4.75,0" style="fill:none;stroke:black;stroke-width:0.52499998;stroke-linecap:round;stroke-linejoin:round;stroke-miterlimit:10" />
    </symbol>
    <symbol id="point-gradient">
      <path d="M 0,15 0,-15" style="fill:none;stroke:black;stroke-width:0.75;stroke-linecap:round;stroke-linejoin:round;stroke-miterlimit:10" />
      <path d="M -2.25,-9 0,-15 2.25,-9 z" style="fill:black;fill-opacity:1;fill-rule:evenodd;stroke:black;stroke-width:0.75;stroke-linecap:round;stroke-linejoin:round;stroke-miterlimit:10" />
    </symbol>
    <symbol id="point-water-flow">
      <path d="m -0.12,7.5 c 0,-1.238 -2.1,-1.675 -1.8,-3 0.387,-1.725 4,-0.125 4.05,-2.25 0,-2.3125 -3.725,-0.587 -4.2,-2.25 -0.538,-1.875 2.4375,-1.725 3.15,-3 0.862,-1.55 -1.2,-2.9 -1.2,-4.5" style="fill:none;stroke:black;stroke-width:0.75;stroke-linecap:round;stroke-linejoin:round;stroke-miterlimit:10" />
      <path d="M 2.105,-5.325 C 1.392,-6.037 0.2675,-6.562 -0.12,-7.5 c -0.3875,0.938 0,2.1 0,3.113 z" style="fill:black;fill-opacity:1;fill-rule:evenodd;stroke:black;stroke-width:0.75;stroke-linecap:round;stroke-linejoin:round;stroke-miterlimit:10" />
    </symbol>
    <symbol id="point-entrance">
      <path d="m -3,7.5 3,-15 3,15 z" style="fill:black;fill-rule:evenodd;stroke:none" />
    </symbol>
    <symbol id="point-soda-straw">
      <path d="m -7.5,-3.35 15,0" style="fill:none;stroke:black;stroke-width:0.75;stroke-linecap:round;stroke-linejoin:round;stroke-miterlimit:10" />
      <path style="fill:none;stroke:black;stroke-width:0.52499998;stroke-linecap:round;stroke-linejoin:round;stroke-miterlimit:10" d="m 6.25,-3.35 0,5.25 m -2.5,-5.25 0,5.87 m -2.5,-5.87 0,4.5 m -2.5,-4.5 0,6.75 M -5,-3.35 l 0,3" />
    </symbol>
    <symbol id="point-helictite">
      <path style="fill:none;stroke:black;stroke-width:0.75;stroke-linecap:round;stroke-linejoin:round;stroke-miterlimit:10" d="m -3,-6 0,4.5 c 0,0.701 0.76,1.164 1,1.2 L 2,0.3 C 2.27,0.34 3,0.799 3,1.5 L 3,6 M 0,-6 0,6" sodipodi:nodetypes="cssssccc" />
    </symbol>
    <symbol id="point-curtain">
      <path style="fill:none;stroke:black;stroke-width:0.75;stroke-linecap:round;stroke-linejoin:round;stroke-miterlimit:10" d="M 0,-2.25 0,0 C -1,0 -1.8,0.71 -1.8,1.65 -1.8,2.59 -1,3.3 0,3.3 L 0,6 M -2.3,-6 0,-2.25 2.3,-6" />
    </symbol>
    <symbol id="point-pillar">
      <path style="fill:none;stroke:black;stroke-width:0.75;stroke-linecap:round;stroke-linejoin:round;stroke-miterlimit:10" d="M -2.3,-6 0,-2.25 2.3,-6 M -2.3,6 0,2.25 2.3,6 M 0,-2.25 0,2.25" />
    </symbol>
    <symbol id="point-stalagmite">
      <path style="fill:none;stroke:black;stroke-width:0.75;stroke-linecap:round;stroke-linejoin:round;stroke-miterlimit:10" d="M 0,2.25 2.25,6 M 0,-6 0,2.25 -2.25,6" />
    </symbol>
    <symbol id="point-stalactite">
      <path style="fill:none;stroke:black;stroke-width:0.75;stroke-linecap:round;stroke-linejoin:round;stroke-miterlimit:10" d="M 0,-2.25 2.25,-6 M 0,6 0,-2.25 -2.25,-6" />
    </symbol>
    <symbol id="point-snow">
      <path style="fill:none;stroke:black;stroke-width:0.75;stroke-linecap:round;stroke-linejoin:round;stroke-miterlimit:10" d="m 3.625,-3.324 -0.375,1.449 1.5,0.389 m 0,2.972 -1.5,0.389 0.375,1.449 M 1,4.811 0,3.75 -1,4.811 M -3.625,3.324 -3.25,1.875 -4.75,1.486 m 0,-2.972 1.5,-0.389 -0.375,-1.449 M -1,-4.811 0,-3.75 1,-4.811 M 0,0 3.25,-1.875 M 0,0 3.25,1.875 M 0,0 0,3.75 M 0,0 -3.25,1.875 M 0,0 -3.25,-1.875 M 0,0 0,-3.75" />
    </symbol>
    <symbol id="point-ice">
      <path style="fill:none;stroke:black;stroke-width:0.75;stroke-linecap:round;stroke-linejoin:round;stroke-miterlimit:10" d="m 1.5,2.25 4.5,0 m -12,0 4.5,0 m -0.75,-4.5 4.5,0 m 1.5,6.75 0,-4.5 m -7.5,4.5 0,-4.5 M 0,0 0,-4.5" />
    </symbol>
    <symbol id="point-debris">
      <path style="fill:none;stroke:black;stroke-width:0.75;stroke-linecap:round;stroke-linejoin:round;stroke-miterlimit:10" d="m -1.5,-0.75 4.5,-4.5 -6,0 z m 4.5,6 3,-4.5 -4.5,0 z m -7.5,0 4.5,-2.7 -6,-1.8 z" />
    </symbol>
    <symbol id="point-pebbles">
      <path style="fill:none;stroke:black;stroke-width:0.75;stroke-linecap:round;stroke-linejoin:round;stroke-miterlimit:10" d="m -2.62,5.93 c 0.4,-0.2 0.6,-0.7 0.6,-1.2 0,-0.7 -0.3,-1.5 -0.7,-2.1 -0.4,-0.7 -0.8,-1.4 -1.4,-1.7997 -0.4,-0.3 -0.9,-0.4 -1.3,-0.2 -0.5,0.2 -0.7,0.6997 -0.7,1.1997 0.1,0.8 0.4,1.5 0.8,2.2 0.3,0.7 0.7,1.3 1.3,1.8 0.4,0.3 1,0.3 1.4,0.1 z m 8.5,-0.8 c 0.3,-0.4 0.3,-0.9 0.1,-1.4 -0.4,-0.7 -1,-1.2 -1.6,-1.6 -0.6,-0.5 -1.3,-0.9 -2,-1.1 -0.5,-0.1 -1,0.1 -1.3,0.5 -0.2997,0.4 -0.2997,0.9 -0.1,1.3 0.4,0.7 1,1.2 1.6,1.7 0.6,0.4 1.2,0.9 2,1 0.5,0.1 1,0 1.3,-0.4 z m -3.3,-10.4 c -0.2,-0.4 -0.7,-0.7 -1.1,-0.8 -0.7997,0 -1.5997,0.2 -2.2997,0.5 -0.7003,0.2 -1.4003,0.5 -2.0003,1.1 -0.3,0.3 -0.5,0.8 -0.3,1.3 0.2,0.5 0.6,0.7 1.1,0.8 0.8,0.1 1.5003,-0.2 2.2003,-0.4 0.8,-0.3 1.4997,-0.6 1.9997,-1.1 0.4,-0.4 0.5,-0.9 0.4,-1.4 z" />
    </symbol>
    <symbol id="point-crystal">
      <path style="fill:none;stroke:black;stroke-width:0.75;stroke-linecap:round;stroke-linejoin:round;stroke-miterlimit:10" d="m 2.65,4.565 -5.3,-9.13 m 0,9.13 5.3,-9.13 m -7.9,4.5299 10.5,0" />
    </symbol>
    <symbol id="point-moonmilk">
      <path d="m -7.498,1.836 c 0,-2.6996 3.51,-3.64 4.8,-1.3996 0.53,-3.0304 4.865,-3.0304 5.395,0 1.301,-2.2404 4.801,-1.3 4.801,1.3996" style="fill:none;stroke:black;stroke-width:0.75;stroke-linecap:round;stroke-linejoin:round;stroke-miterlimit:10" />
    </symbol>
    <symbol id="point-flowstone">
      <path style="fill:none;stroke:black;stroke-width:0.75;stroke-linecap:round;stroke-linejoin:round;stroke-miterlimit:10" d="m -2.25,-1.49 4.5,0 m -9,2.98 4.5,0 m 4.5,0 4.5,0" />
    </symbol>
    <symbol id="point-water">
      <path d="m 6.35,0 c 0,-1.2 -0.7,-2.3 -1.9,-3.2 -1.2,-0.8 -2.8,-1.3 -4.5,-1.3 -1.7,0 -3.3,0.5 -4.5,1.3 -1.2,0.9 -1.8,2 -1.8,3.2 0,1.2 0.6,2.4 1.8,3.2 1.2,0.8 2.8,1.3 4.5,1.3 1.7,0 3.3,-0.5 4.5,-1.3 1.2,-0.8 1.9,-2 1.9,-3.2 z" style="fill:#8dc0ff;fill-opacity:1;stroke:black;stroke-width:0.52499998;stroke-linecap:round;stroke-linejoin:round;stroke-miterlimit:10" />
      <path style="color:black;fill:none;stroke:black;stroke-width:0.30000001;stroke-linecap:butt;stroke-linejoin:miter;stroke-miterlimit:4;stroke-opacity:1;stroke-dasharray:none;stroke-dashoffset:0;marker:none;visibility:visible;display:inline;overflow:visible;enable-background:accumulate" d="M 2.44,4.094 C 0.43,2.082 -2.21,-0.581 -4.75,-3.094 M 6.31,0.4062 C 4.76,-1.207 3.13,-2.794 1.53,-4.375 m -7.81,3.5938 C -3.77,1.724 -2.41,3.081 -1.09,4.406 M -2.16,-4.25 c 1.71,1.667 4.35,4.28 7.1,7.031" sodipodi:nodetypes="cccccccc" />
    </symbol>
    <symbol id="point-clay">
      <path d="m -4.485,0 c 0,-3 4.47,-3 4.47,0 0,3 4.5,3 4.5,0" style="fill:none;stroke:black;stroke-width:0.75;stroke-linecap:round" />
    </symbol>
    <symbol id="point-raft">
      <path d="m -7.5,-3 c 0.44,2.5 0.62,5.5 3,6 1.9,0.4 3.38,-1.3 4.5,-3 1.12,-1.7 2.6,-3.4 4.5,-3 2.39,0.5 2.56,3.5 3,6" style="fill:none;stroke:black;stroke-width:0.75;stroke-linecap:round" />
    </symbol>
    <symbol id="point-bedrock">
      <path style="fill:none;stroke:black;stroke-width:0.75;stroke-linecap:round" d="m 4.5,0 0,3 m -9,-3 0,-3 m -3,3 15,0" />
    </symbol>
    <symbol id="point-root">
      <path style="fill:none;stroke:black;stroke-width:0.75;stroke-linecap:round;stroke-linejoin:round;stroke-miterlimit:10" d="m -1.5,-1.5 3,3 m -3,0 3,3 m -3,0 3,3 m -3,0 0,-15" />
    </symbol>
    <symbol id="point-vegetable-debris">
      <path style="fill:none;stroke:black;stroke-width:0.75;stroke-linecap:round;stroke-linejoin:round;stroke-miterlimit:10" d="m -5.685,1.95 9.47,0 m -7.52,-3.9 9.42,0 m -5.7,6.45 4.5,-9 m -8.97,9 4.47,-9" />
    </symbol>
    <symbol id="point-paleo-material">
      <path d="m -5.5508634,4.1078263 c -0.91,-1.87 2.3500001,-0.95 3.0000001,-1.8 0,0 1.5,-1.95000004 1.5,-1.95000004 0,0 1.49999997,-2.24999996 1.49999997,-2.24999996 0.64000003,-0.96 -1.17,-2.05 -0.45000000469,-3 1.15000003469,-1.51 2.21000003469,1.27 3.45000003469,1.5 0.9699997,0.18 2.3999997,-0.26 2.2499997,0.75 -0.16,1.1 -1.6899997,0.19 -2.2499997,0.75 0,0 -3.00000003,3 -3.00000003,3 0,0 -1.49999997,2.55 -1.49999997,2.55 -0.24,0.41 0.53999997,0.78 0.29999997,1.2000003 -0.67999997,1.17 -2.06999997,-0.14 -3.29999997,-0.3000003 -0.56,-0.1 -1.2500001,0.1 -1.5000001,-0.45 z" style="fill:black;fill-rule:evenodd;stroke:none" />
    </symbol>
    <symbol id="point-archeo-material">
      <path style="fill:none;stroke:black;stroke-width:0.75;stroke-linecap:round;stroke-linejoin:round;stroke-miterlimit:10" d="M 0,0 6,0 M -4.2375,-4.2375 0,0 M -4.2375,4.2375 0,0" />
      <path d="M 6,0 C 6,-1.5875 5.3625,-3.1125 4.2375,-4.2375 3.1125,-5.3625 1.5875,-6 0,-6 -1.5875,-6 -3.1125,-5.3625 -4.2375,-4.2375 -5.3625,-3.1125 -6,-1.5875 -6,0 -6,1.5875 -5.3625,3.1125 -4.2375,4.2375 -3.1125,5.3625 -1.5875,6 0,6 1.5875,6 3.1125,5.3625 4.2375,4.2375 5.3625,3.1125 6,1.5875 6,0 z" style="fill:none;stroke:black;stroke-width:0.75;stroke-linecap:round;stroke-linejoin:round;stroke-miterlimit:10" />
    </symbol>
    <symbol id="point-breakdown-choke">
      <path d="M -7.5,1.5 -2.25,-0.75 -7.2,-3 z" style="fill:none;stroke:black;stroke-width:0.75;stroke-linecap:round;stroke-linejoin:round;stroke-miterlimit:10" />
      <path d="M -3,3 2.25,2.7 -1.2,-2.1 z" style="fill:none;stroke:black;stroke-width:0.75;stroke-linecap:round;stroke-linejoin:round;stroke-miterlimit:10" />
      <path d="M 1.5,0 6,1.5 7.5,-3 l -6,0 z" style="fill:none;stroke:black;stroke-width:0.75;stroke-linecap:round;stroke-linejoin:round;stroke-miterlimit:10" />
    </symbol>
    <symbol id="point-no-equipment">
      <path d="M -6,6 6,6 6,-6 -6,-6 z" style="fill:none;stroke:black;stroke-width:0.52499998;stroke-linecap:round;stroke-linejoin:round;stroke-miterlimit:10" />
      <path d="m 0,1.5 -0.75,-6 1.5,0 z" style="fill:black;fill-rule:evenodd;stroke:none" />
      <path d="M 0,3 0,3" style="fill:none;stroke:black;stroke-width:1.80000007;stroke-linecap:round;stroke-linejoin:round;stroke-miterlimit:10" />
    </symbol>
    <symbol id="point-camp">
      <path d="M -6,6.75 0,-6.75 6,6.75 z" style="fill:none;stroke:black;stroke-width:0.75;stroke-linecap:round;stroke-linejoin:round;stroke-miterlimit:10" />
      <path d="M 0,6.75 0,-6.75" style="fill:none;stroke:black;stroke-width:0.52499998;stroke-linecap:round;stroke-linejoin:round;stroke-miterlimit:10" />
    </symbol>
    <symbol id="point-traverse">
      <path d="M -6,6 6,6 6,-6 -6,-6 z" style="fill:none;stroke:black;stroke-width:0.52499998;stroke-linecap:round;stroke-linejoin:round;stroke-miterlimit:10" />
      <path d="M -3.75,-0.75 C -2.8875,0.475 -1.4875,1.2 0,1.2 1.4875,1.2 2.8875,0.475 3.75,-0.75" style="fill:none;stroke:black;stroke-width:0.75;stroke-linecap:round;stroke-linejoin:round;stroke-miterlimit:10" />
      <path d="m -3.75,-0.75 0,0" style="fill:none;stroke:black;stroke-width:2.70000005;stroke-linecap:round;stroke-linejoin:round;stroke-miterlimit:10" />
      <path d="m 3.75,-0.75 0,0" style="fill:none;stroke:black;stroke-width:2.70000005;stroke-linecap:round;stroke-linejoin:round;stroke-miterlimit:10" />
    </symbol>
    <symbol id="point-bridge">
      <path d="M -6,6 6,6 6,-6 -6,-6 z" style="fill:none;stroke:black;stroke-width:0.52499998;stroke-linecap:round;stroke-linejoin:round;stroke-miterlimit:10" />
      <path d="m -4.5,-3 1.5,1.5 6,0 1.5,-1.5" style="fill:none;stroke:black;stroke-width:0.75;stroke-linecap:round;stroke-linejoin:round;stroke-miterlimit:10" />
      <path d="M -4.5,3 -3,1.5 3,1.5 4.5,3" style="fill:none;stroke:black;stroke-width:0.75;stroke-linecap:round;stroke-linejoin:round;stroke-miterlimit:10" />
    </symbol>
    <symbol id="point-steps">
      <path d="M -6,6 6,6 6,-6 -6,-6 z" style="fill:none;stroke:black;stroke-width:0.52499998;stroke-linecap:round;stroke-linejoin:round;stroke-miterlimit:10" />
      <path d="m -4.5,-4.5 0,3 3,0 0,3 3,0 0,3 3,0" style="fill:none;stroke:black;stroke-width:0.75;stroke-linecap:round;stroke-linejoin:round;stroke-miterlimit:10" />
    </symbol>
    <symbol id="point-rope-ladder">
      <path d="M -6,6 6,6 6,-6 -6,-6 z" style="fill:none;stroke:black;stroke-width:0.52499998;stroke-linecap:round;stroke-linejoin:round;stroke-miterlimit:10" />
      <path d="M 1.5,6 C 2.425,5.275 2.975,4.175 3,3 3,0.9 1.45,-0.9 1.5,-3 1.5,-4.175 2.075,-5.275 3,-6" style="fill:none;stroke:black;stroke-width:0.75;stroke-linecap:round;stroke-linejoin:round;stroke-miterlimit:10" />
      <path d="m -3,6 c 0.925,-0.725 1.475,-1.825 1.5,-3 0,-2.1 -1.55,-3.9 -1.5,-6 0,-1.175 0.575,-2.275 1.5,-3" style="fill:none;stroke:black;stroke-width:0.75;stroke-linecap:round;stroke-linejoin:round;stroke-miterlimit:10" />
      <path d="m -3,-3 4.5,0" style="fill:none;stroke:black;stroke-width:0.75;stroke-linecap:round;stroke-linejoin:round;stroke-miterlimit:10" />
      <path d="m -2.25,0 4.5,0" style="fill:none;stroke:black;stroke-width:0.75;stroke-linecap:round;stroke-linejoin:round;stroke-miterlimit:10" />
      <path d="M -1.5,3 3,3" style="fill:none;stroke:black;stroke-width:0.75;stroke-linecap:round;stroke-linejoin:round;stroke-miterlimit:10" />
    </symbol>
    <symbol id="point-fixed-ladder">
      <path d="M -6,6 6,6 6,-6 -6,-6 z" style="fill:none;stroke:black;stroke-width:0.52499998;stroke-linecap:round;stroke-linejoin:round;stroke-miterlimit:10" />
      <path d="m -2.25,6 0,-12" style="fill:none;stroke:black;stroke-width:0.75;stroke-linecap:round;stroke-linejoin:round;stroke-miterlimit:10" />
      <path d="m 2.25,6 0,-12" style="fill:none;stroke:black;stroke-width:0.75;stroke-linecap:round;stroke-linejoin:round;stroke-miterlimit:10" />
      <path d="m -2.25,0 4.5,0" style="fill:none;stroke:black;stroke-width:0.75;stroke-linecap:round;stroke-linejoin:round;stroke-miterlimit:10" />
      <path d="m -2.25,-3 4.5,0" style="fill:none;stroke:black;stroke-width:0.75;stroke-linecap:round;stroke-linejoin:round;stroke-miterlimit:10" />
      <path d="m -2.25,3 4.5,0" style="fill:none;stroke:black;stroke-width:0.75;stroke-linecap:round;stroke-linejoin:round;stroke-miterlimit:10" />
    </symbol>
    <symbol id="point-rope">
      <path d="m -6,5.94375 12,0 0,-12 -12,0 z" style="fill:none;stroke:black;stroke-width:0.52499998;stroke-linecap:round;stroke-linejoin:round;stroke-miterlimit:10" />
      <path d="m -3,-3.05625 c -0.4875,1.825 1.175,3.4875 3,3 0.7375,-0.2 1.3,-0.7625 1.5,-1.5 l 0,7.5" style="fill:none;stroke:black;stroke-width:0.75;stroke-linecap:round;stroke-linejoin:round;stroke-miterlimit:10" />
      <path d="m -3,-3.05625 0,0" style="fill:none;stroke:black;stroke-width:2.70000005;stroke-linecap:round;stroke-linejoin:round;stroke-miterlimit:10" />
      <path d="m 1.5,-1.55625 0,0" style="fill:none;stroke:black;stroke-width:2.70000005;stroke-linecap:round;stroke-linejoin:round;stroke-miterlimit:10" />
    </symbol>
    <symbol id="point-anchor">
      <path d="M -6,6 6,6 6,-6 -6,-6 z" style="fill:none;stroke:black;stroke-width:0.52499998;stroke-linecap:round;stroke-linejoin:round;stroke-miterlimit:10" />
      <path d="M 4.5,0 C 4.5,-0.4 4.3375,-0.775 4.0625,-1.0625 3.775,-1.3375 3.4,-1.5 3,-1.5 2.6025,-1.5 2.22125,-1.3375 1.93875,-1.0625 1.6575,-0.775 1.5,-0.4 1.5,0 1.5,0.4 1.6575,0.775 1.93875,1.0625 2.22125,1.3375 2.6025,1.5 3,1.5 3.4,1.5 3.775,1.3375 4.0625,1.0625 4.3375,0.775 4.5,0.4 4.5,0 z" style="fill:none;stroke:black;stroke-width:0.75;stroke-linecap:round;stroke-linejoin:round;stroke-miterlimit:10" />
      <path d="m -4.5,0 6,0" style="fill:none;stroke:black;stroke-width:1.5;stroke-linecap:butt;stroke-linejoin:round;stroke-miterlimit:10" />
      <path d="m 1.5,6 0,-12" style="fill:none;stroke:black;stroke-width:0.52499998;stroke-linecap:round;stroke-linejoin:round;stroke-miterlimit:10" />
    </symbol>
    <symbol id="point-flute">
      <path d="m -7.5,-1.575 15,0" style="fill:none;stroke:black;stroke-width:0.75;stroke-linecap:round;stroke-linejoin:round;stroke-miterlimit:10" />
      <path d="m -4.5,-1.575 c 1.5,4.2 7.5,4.2 9,0" style="fill:none;stroke:black;stroke-width:0.75;stroke-linecap:round;stroke-linejoin:round;stroke-miterlimit:10" />
    </symbol>
    <symbol id="point-scallop">
      <path d="m 0,5.25 c -1.5,-2.225 -2.25,-4.875 -3,-7.5 0,-4 6,-4 6,0 -0.75,2.625 -1.5,5.275 -3,7.5" style="fill:none;stroke:black;stroke-width:0.75;stroke-linecap:round;stroke-linejoin:round;stroke-miterlimit:10" />
    </symbol>
    <symbol id="point-karren">
      <path d="m -7.5,4.429687 c 0.125,1.65 2.5,1.65 2.75,0 0.25,-3 0.25,-6 0.5,-9 0.125,-1.4625 2.375,-1.4625 2.5,0 0.25,3 0.25,6 0.5,9 0.125,1.4625 2.375,1.4625 2.5,0 0.25,-3 0.25,-6 0.5,-9 0.125,-1.4625 2.375,-1.4625 2.5,0 0.25,3 0.25,6 0.5,9 0.25,1.65 2.625,1.65 2.75,0" style="fill:none;stroke:black;stroke-width:0.75;stroke-linecap:round;stroke-linejoin:round;stroke-miterlimit:10" />
    </symbol>
    <symbol id="point-anastomosis">
      <path d="M -1.5,3 0,4.5 4.5,-4.5 6,-3 M -6,3 -4.5,4.5 0,-4.5 1.5,-3" style="fill:none;stroke:black;stroke-width:0.75;stroke-linecap:round;stroke-linejoin:round" />
    </symbol>
    <symbol id="point-rimstone-dam">
      <path d="m -6,-2.1 c 2,5.6 10,5.6 12,0" style="fill:none;stroke:black;stroke-width:0.75;stroke-linecap:round;stroke-linejoin:round;stroke-miterlimit:10" />
    </symbol>
    <symbol id="point-rimstone-pool">
      <path d="m -5.25,-0.6 c 2.5,3.6 8,3.6 10.5,0 l 0,0 -10.5,0 z" style="fill:black;fill-rule:evenodd;stroke:none" />
      <path d="m -6,-2.1 c 2,5.6 10,5.6 12,0" style="fill:none;stroke:black;stroke-width:0.75;stroke-linecap:round;stroke-linejoin:round;stroke-miterlimit:10" />
    </symbol>
    <symbol id="point-cave-pearl">
      <g id="g3829">
        <path style="fill:none;stroke:black;stroke-width:0.75" d="m 1.875,-1.807797 c 0,-0.5 -0.25,-0.975 -0.5,-1.325 -0.375,-0.35 -0.875,-0.55 -1.375,-0.55 -0.5,0 -1,0.2 -1.375,0.55 -0.25,0.35 -0.5,0.825 -0.5,1.325 0,0.5 0.25,0.975 0.5,1.325 0.375,0.35 0.875,0.55 1.375,0.55 0.5,0 1,-0.2 1.375,-0.55 0.25,-0.35 0.5,-0.825 0.5,-1.325 z" />
        <path style="fill:none;stroke:black;stroke-width:0.75" d="m -3,0.167203 c -0.5,0.25 -0.75,0.6625 -0.875,1.1375 -0.125,0.4875 -0.125,1 0.125,1.425 0.25,0.4375 0.75,0.75 1.125,0.875 0.5,0.125 1,0.125 1.5,-0.1875 0.375,-0.25 0.75,-0.6625 0.875,-1.1375 0.125,-0.4875 0,-0.9875 -0.25,-1.425 -0.25,-0.425 -0.625,-0.75 -1.125,-0.875 -0.5,-0.125 -1,-0.125 -1.375,0.1875 z" />
        <path style="fill:none;stroke:black;stroke-width:0.75" d="m 1.125,3.417203 c 0.5,0.25 1,0.3125 1.5,0.1875 C 3,3.479703 3.5,3.167203 3.75,2.729703 4,2.292203 4,1.792203 3.875,1.304703 3.75,0.829703 3.5,0.417203 3,0.167203 c -0.375,-0.25 -0.875,-0.3125 -1.375,-0.1875 -0.5,0.125 -0.875,0.4375 -1.125,0.875 -0.25,0.425 -0.375,0.9375 -0.25,1.425 0.125,0.475 0.5,0.8875 0.875,1.1375 z" />
      </g>
    </symbol>
    <symbol id="point-aragonite">
      <path style="fill:none;stroke:black;stroke-width:0.75;stroke-linecap:round;stroke-linejoin:round;stroke-miterlimit:10" d="m 0,-3.74 c -1.1,-0.68 -2.4,-1.38 -3.7,-1.5 m 3.7,1.5 c 1.2,-0.68 2.4,-1.38 3.8,-1.5 M 0,0.74 c -1.3,-1.1 -2.7,-2.52 -4.5,-2.68 M 0,0.74 c 1.4,-1.1 2.7,-2.52 4.5,-2.68 M 0,5.24 0,-5.24" />
    </symbol>
    <symbol id="point-gypsum-flower">
      <path d="m 2.6771906,0.11584228 c -1.4,0 -2.59999998,-0.9 -2.69999998,-2.22999998 0,-1.48 1.49999998,-2.5 2.99999998,-2.25 2.1,0.33 3.3,2.38 3,4.47999998 -0.2,2.10000002 -1.7,3.80000002 -3.7,4.20000002 -3.7,0.7 -6.3,-3 -8.3,-6.43" style="fill:none;stroke:black;stroke-width:0.75;stroke-linecap:round;stroke-linejoin:round;stroke-miterlimit:10" />
    </symbol>
    <symbol id="point-gypsum">
      <path style="fill:none;stroke:black;stroke-width:0.75;stroke-linecap:round;stroke-linejoin:round;stroke-miterlimit:10" d="m -0.05,3.765 0,-7.53 m -3.7,3.73 7.5,0" />
    </symbol>
    <symbol id="point-disk">
      <path d="M 2.25,-2.25 C 2.25,-2.85 2,-3.4125 1.625,-3.8375 1.125,-4.2625 0.625,-4.5 0,-4.5 c -0.625,0 -1.125,0.2375 -1.625,0.6625 C -2,-3.4125 -2.25,-2.85 -2.25,-2.25 c 0,0.6 0.25,1.1625 0.625,1.5875 C -1.125,-0.2375 -0.625,0 0,0 0.625,0 1.125,-0.2375 1.625,-0.6625 2,-1.0875 2.25,-1.65 2.25,-2.25 z" style="fill:white;stroke:black;stroke-width:0.75" />
      <path d="M -3,4.5 0,0 3,4.5" style="fill:none;stroke:black;stroke-width:0.75;stroke-linecap:round;stroke-linejoin:round" />
    </symbol>
    <symbol id="point-popcorn">
      <path d="m -7.5,2.8125 15,0" style="fill:none;stroke:black;stroke-width:0.75;stroke-linecap:round;stroke-linejoin:round;stroke-miterlimit:10" />
      <path d="m -4.5,2.8125 0,-4.5" style="fill:none;stroke:black;stroke-width:0.52499998;stroke-linecap:round;stroke-linejoin:round;stroke-miterlimit:10" />
      <path d="m 0,2.8125 0,-4.5" style="fill:none;stroke:black;stroke-width:0.52499998;stroke-linecap:round;stroke-linejoin:round;stroke-miterlimit:10" />
      <path d="m 4.5,2.8125 0,-4.5" style="fill:none;stroke:black;stroke-width:0.52499998;stroke-linecap:round;stroke-linejoin:round;stroke-miterlimit:10" />
      <path d="m -3,-1.6875 c 0,-0.4 -0.125,-0.775 -0.5,-1.0625 -0.25,-0.275 -0.625,-0.4375 -1,-0.4375 -0.375,0 -0.75,0.1625 -1,0.4375 -0.375,0.2875 -0.5,0.6625 -0.5,1.0625 0,0.4 0.125,0.775 0.5,1.0625 0.25,0.275 0.625,0.4375 1,0.4375 0.375,0 0.75,-0.1625 1,-0.4375 0.375,-0.2875 0.5,-0.6625 0.5,-1.0625 z" style="fill:black;fill-rule:evenodd;stroke:none" />
      <path d="M 1.5,-1.6875 C 1.5,-2.0875 1.375,-2.4625 1,-2.75 0.75,-3.025 0.375,-3.1875 0,-3.1875 c -0.375,0 -0.75,0.1625 -1,0.4375 -0.375,0.2875 -0.5,0.6625 -0.5,1.0625 0,0.4 0.125,0.775 0.5,1.0625 0.25,0.275 0.625,0.4375 1,0.4375 0.375,0 0.75,-0.1625 1,-0.4375 0.375,-0.2875 0.5,-0.6625 0.5,-1.0625 z" style="fill:black;fill-rule:evenodd;stroke:none" />
      <path d="m 6,-1.6875 c 0,-0.4 -0.125,-0.775 -0.5,-1.0625 -0.25,-0.275 -0.625,-0.4375 -1,-0.4375 -0.375,0 -0.75,0.1625 -1,0.4375 -0.375,0.2875 -0.5,0.6625 -0.5,1.0625 0,0.4 0.125,0.775 0.5,1.0625 0.25,0.275 0.625,0.4375 1,0.4375 0.375,0 0.75,-0.1625 1,-0.4375 C 5.875,-0.9125 6,-1.2875 6,-1.6875 z" style="fill:black;fill-rule:evenodd;stroke:none" />
    </symbol>
    <symbol id="point-wall-calcite">
      <path d="M -3,2.24 0,-2.24 3,2.24" style="fill:none;stroke:black;stroke-width:0.75;stroke-linecap:round;stroke-linejoin:round;stroke-miterlimit:10" />
    </symbol>
    <symbol id="point-sand">
      <path d="m -2.05,2 c 0,0.2761424 -0.2238576,0.5 -0.5,0.5 -0.2761424,0 -0.5,-0.2238576 -0.5,-0.5 0,-0.2761424 0.2238576,-0.5 0.5,-0.5 0.2761424,0 0.5,0.2238576 0.5,0.5 z m 5.1,0 c 0,0.2761424 -0.2238576,0.5 -0.5,0.5 -0.2761424,0 -0.5,-0.2238576 -0.5,-0.5 0,-0.2761424 0.2238576,-0.5 0.5,-0.5 0.2761424,0 0.5,0.2238576 0.5,0.5 z M 0.5,-2.55 c 0,0.2761424 -0.2238576,0.5 -0.5,0.5 -0.2761424,0 -0.5,-0.2238576 -0.5,-0.5 0,-0.2761424 0.2238576,-0.5 0.5,-0.5 0.2761424,0 0.5,0.2238576 0.5,0.5 z" style="fill:black;stroke:none" />
    </symbol>
    <!-- LPEs -->
    <inkscape:path-effect effect="skeletal" id="LPE-contour" prop_scale="-3" pattern="m 0,0 2,0 m -1,0 0,1" normal_offset="0.5" />
    <inkscape:path-effect effect="skeletal" id="LPE-pit" copytype="repeated_stretched" fuse_tolerance="0.1" prop_scale="-3" pattern="m 0,0 4,0 m -2,0 0,1" normal_offset="0.5" />
    <inkscape:path-effect effect="skeletal" id="LPE-flowstone" copytype="repeated_stretched" prop_scale="-1" pattern="m 0,0 c 2,4 8,4 10,0" fuse_tolerance="0.1" normal_offset="1.5" />
    <inkscape:path-effect effect="skeletal" id="LPE-moonmilk" copytype="repeated_stretched" prop_scale="-1" pattern="M 0,0 C 1,2 4,2 5,0" fuse_tolerance="0.1" normal_offset="1.0" />
    <inkscape:path-effect effect="skeletal" id="LPE-floor-step" prop_scale="-3" pattern="m 0,0 -6,0 m 3,0 0,1" normal_offset="0.5" fuse_tolerance="0.1" copytype="repeated_stretched" />
    <inkscape:path-effect effect="skeletal" id="LPE-ceiling-step" prop_scale="-3" pattern="m 0,0 -6,0 m 3,0 0,1" normal_offset="0.5" copytype="repeated_stretched" spacing="3" />
    <inkscape:path-effect effect="skeletal" id="LPE-floor-meander" pattern="m 0,-2 h 2 m -1,0 v 1 M 0,2 H 2 M 1,2 V 1" fuse_tolerance="0.1" copytype="repeated_stretched" />
    <inkscape:path-effect effect="skeletal" id="LPE-ceiling-meander" pattern="m 0,-2 h 2 m -1,0 v 1 M 0,2 H 2 M 1,2 V 1" fuse_tolerance="0.1" copytype="repeated_stretched" spacing="2" />
    <inkscape:path-effect effect="skeletal" id="LPE-overhang" prop_scale="-3" pattern="m 0,0 -4,0 2,1 z" normal_offset="0.5" copytype="repeated_stretched" />
	<inkscape:path-effect effect="skeletal" id="LPE-water-flow" pattern="m 0,0 c 3,-3 7,-3 10,0 3,3 7,3 10,0" copytype="repeated_stretched" fuse_tolerance="0.1" />
    <inkscape:path-effect effect="skeletal" id="LPE-slope" copytype="repeated_stretched" prop_scale="-5" pattern="M 0,0 0,2 M 5,0 5,1" normal_offset="1.0" spacing="5" />
    
	<inkscape:path-effect effect="skeletal" id="LPE-wall_blocks" copytype="repeated_stretched" prop_scale="1" pattern="m 0,0 0,-3 18.0000004,0 0,3" normal_offset="1.5" spacing="2" />
	<inkscape:path-effect effect="skeletal" id="LPE-wall_debris" copytype="repeated_stretched" prop_scale="1" pattern="m 0,0 4.5,-4.5 -6,0 1.5,4.5 z m 3.070925,-1.80651 5.123123,1.73309 -1.164686,-4.34666 -3.958437,2.61357 z m -9.626203,2.05035 4.5,-2.7 -6,-1.8 1.5,4.5 z" />
	<inkscape:path-effect effect="skeletal" id="LPE-wall_pebbles" copytype="repeated_stretched" prop_scale="1" pattern="m 0,0 0.488037,-1.26957 2.201803,-0.83107 2.276854,-0.16474 0.958748,0.9278 -0.488037,1.26957 -2.064004,0.86094 -2.276351,0.1644 -1.09705,-0.95733 z m 15.58774,0.93574 0.1,-1.4 -1.600001,-1.6 -1.999999,-1.1 -1.3,0.5 -0.1,1.3 1.6,1.7 1.999999,1 1.300001,-0.4 z m -4.31085,-0.58382 -0.408093,-1.27807 -1.967189,-1.01497 -2.258765,-0.3113 -1.070436,0.76431 0.336282,1.34766 2.108599,1.01677 2.187372,0.38131 1.07223,-0.90571 z" />
	<inkscape:path-effect effect="skeletal" id="LPE-wall_sand" copytype="repeated_stretched" prop_scale="1" pattern="M 0,0 H 8 M 2,3 H 2.1 M 4,2 H 4.1 M 6,3 H 6.1 M 8,2 h 0.1" normal_offset="0.5" prop_units="true" />
    <inkscape:path-effect effect="skeletal" id="LPE-wall_clay" copytype="repeated_stretched" prop_scale="1" pattern="M 0,0 H 12 M 0,5 c 0,-3 4,-3 4,0 0,3 4,3 4,0" normal_offset="0.5" prop_units="true" />
    <!-- CSS -->
	<style type="text/css" xml:space="preserve" id="th2style">
		symbol, marker {
			overflow: visible;
		}
		path {
			fill:none;
			stroke:black;
			stroke-linecap:round;
			stroke-linejoin:round;
		}
		path.line {
			marker-start:url(#PointInStart);
			marker-end:url(#PointInEnd);
		}
		path.line.u {
			stroke:red;
		}
		path.line.u.water {
			fill:blue;
		}
		path.line.u.sand {
			fill:yellow;
		}

path.line.u.BLACK { stroke: black }
path.line.u.BLUE { stroke: blue }
path.line.u.BROWN { stroke: brown }
path.line.u.GREEN { stroke: green }
path.line.u.ORANGE { stroke: orange }
path.line.u.RED { stroke: red }

		path.line.wall {
			stroke-width:1.0;
		}
		path.line.wall.presumed {
			stroke-dasharray:5, 3;
		}
		path.line.wall.sand,
		path.line.wall.clay,
		path.line.wall.ice,
		path.line.wall.blocks {
			marker-start:none;
			marker-end:none;
		}
		path.line.wall.debris,
		path.line.wall.pebbles {
			stroke-width:0.75;
			marker-start:none;
			marker-end:none;
		}
		path.line.invisible {
			stroke-opacity:0.5;
		}
		path.line.survey {
			stroke:#c00;
			stroke-width:0.3;
		}
		path.line.floor-step,
		path.line.floor-meander,
		path.line.ceiling-step,
		path.line.ceiling-meander,
		path.line.pit,
		path.line.slope,
		path.line.contour {
			stroke-width:0.325;
			marker-start:none;
			marker-end:none;
		}
		path.line.chimney {
			stroke-width:0.55;
			stroke-dasharray:3.75, 3.75;
		}
		path.line.section {
			marker-start:none;
			marker-end:url(#ArrowSection);
			stroke: #cc0;
			opacity: 0.7;
		}
		path.line.border {
			stroke:#9c9;
			stroke-width:0.4;
			marker-start:none;
			marker-end:none;
		}
		path.line.rock-border {
			stroke:black;
			stroke-width:0.55;
			marker-start:none;
			marker-end:none;
			fill:white;
			fill-opacity:0.5;
		}
		path.line.rock-edge {
			stroke:black;
			stroke-width:0.325;
		}
		path.line.overhang {
			stroke:none;
			fill:black;
			marker-start:none;
			marker-end:none;
		}
		path.line.water-flow {
			marker-start:none;
			marker-end:url(#ArrowEnd);
		}
		path.line.gradient {
			stroke-width:0.75;
			marker-start:none;
			marker-end:url(#ArrowGradient);
		}
		path.line.arrow	{
			marker-start:none;
			marker-end:url(#ArrowEnd);
		}
		path.line.map-connection {
			marker-start:url(#ArrowStart);
			marker-end:url(#ArrowEnd);
			stroke-dasharray:1,2;
		}
		path.line.flowstone,
		path.line.moonmilk {
			marker-start:none;
			marker-end:none;
		}
		circle {
			stroke:none;
			fill:blue;
			fill-opacity:0.8;
		}
	</style>
  </defs>
  <g id="layer-scan"
  	inkscape:groupmode="layer"
	inkscape:label="Background images"
	style="display:none;opacity:0.5"
	therion:role="none"
	sodipodi:insensitive="true"
	transform="scale(1,-1)"
	/>
  <g
  	id="layer-legend"
	inkscape:groupmode="layer"
	inkscape:label="Symbol Legend"
	style="display:none;font-size:6;text-anchor:middle"
	therion:role="none"
	/>
  <g
    id="layer-scrap0"
	inkscape:groupmode="layer"
	inkscape:label="scrap0"
	therion:role="none"
	/>
</svg>
