<?xml version="1.0" encoding="UTF-8" standalone="no"?>
<svg
   version="1.1"
   width="8cm"
   height="4cm"
   viewBox="0 0 8 4"
   id="svg1"
   xmlns:inkscape="http://www.inkscape.org/namespaces/inkscape"
   xmlns:sodipodi="http://sodipodi.sourceforge.net/DTD/sodipodi-0.dtd"
   xmlns="http://www.w3.org/2000/svg"
   xmlns:svg="http://www.w3.org/2000/svg">
  <inkscape:templateinfo>
    <inkscape:name>Therion Metapost</inkscape:name>
    <inkscape:shortdesc>Point symbol examples for Therion Metapost export</inkscape:shortdesc>
  </inkscape:templateinfo>
  <defs
     id="defs1">
    <style
       id="style1">
path {
    stroke-linecap:round;
    stroke-linejoin:round;
}
rect.U {
    fill:orange;
    stroke:none;
}
</style>
  </defs>
  <sodipodi:namedview
     pagecolor="#ffffff"
     bordercolor="#000000"
     borderopacity="0.25"
     inkscape:showpageshadow="2"
     inkscape:pageopacity="0.0"
     inkscape:pagecheckerboard="0"
     inkscape:deskcolor="#d1d1d1"
     showgrid="true"
     inkscape:document-units="mm"
     showguides="true"
     id="namedview1"
     inkscape:current-layer="g13">
    <inkscape:grid
       units="mm"
       originx="0"
       originy="0"
       spacingx="0.1"
       spacingy="0.1"
       empcolor="#0099e5"
       empopacity="0.30196"
       color="#0099e5"
       opacity="0.14902"
       empspacing="10"
       dotted="false"
       gridanglex="30"
       gridanglez="30"
       visible="true"
       id="grid1" />
  </sodipodi:namedview>
  <g
     inkscape:groupmode="layer"
     id="g17"
     inkscape:label="l_wall_sand"
     transform="matrix(1,0,0,1,2,2)">
    <rect
       style="fill:#ffa500;fill-opacity:0.5"
       id="rect13"
       width="0.6"
       height="0.4"
       x="4.7"
       y="1.0"
       inkscape:label="U_out" />
    <rect
       style="fill:#00ff00;fill-opacity:0.5"
       id="rect14"
       width="0.6"
       height="0.4"
       x="4.7"
       y="0.6"
       inkscape:label="U_in" />
    <path
       style="fill:none;stroke:#a0892c;stroke-width:0.1"
       d="M 4.7,1.0 H 5.3"
       id="path15"
       inkscape:label="P"
       sodipodi:nodetypes="cc" />
    <ellipse
       style="fill:#a0892c;stroke:none"
       id="path17"
       cx="5"
       cy="1.2"
       inkscape:label="dot-out"
       ry="0.07"
       rx="0.07" />
  </g>
  <g
     inkscape:groupmode="layer"
     id="g19"
     inkscape:label="l_floorstep"
     transform="matrix(1,0,0,1,2,0)">
    <rect
       style="fill:#ffa500;fill-opacity:0.5"
       id="rect17"
       width="1"
       height="0.4"
       x="4.5"
       y="1"
       inkscape:label="U_out" />
    <rect
       style="fill:#00ff00;fill-opacity:0.5"
       id="rect18"
       width="1.000"
       height="0.4"
       x="4.5"
       y="0.6000"
       inkscape:label="U_in" />
    <path
       style="fill:none;stroke:#800080;stroke-width:0.07"
       d="M 4.7,1.0 H 5.3"
       id="path18"
       inkscape:label="P"
       sodipodi:nodetypes="cc" />
    <path
       style="fill:none;stroke:#800080;stroke-width:0.07"
       d="M 5.000,0.7000 5.000,1"
       id="path18-2"
       inkscape:label="tick"
       sodipodi:nodetypes="cc" />
  </g>
  <g
     inkscape:groupmode="layer"
     id="layer1-2"
     inkscape:label="l_pit"
     transform="matrix(1,0,0,1,0,2)">
    <rect
       style="fill:#ffa500;fill-opacity:0.5"
       id="rect2-9"
       width="0.6"
       height="0.4"
       x="4.7"
       y="1.000"
       inkscape:label="U_out" />
    <rect
       style="fill:#00ff00;fill-opacity:0.5"
       id="rect4-1"
       width="0.6"
       height="0.4"
       x="4.7"
       y="0.600"
       inkscape:label="U_in" />
    <path
       style="fill:none;stroke:#ff00ff;stroke-width:0.1"
       d="m 4.7,1.0 0.6,0"
       id="path11-2"
       inkscape:label="P"
       sodipodi:nodetypes="cc" />
    <path
       style="fill:#ff00ff;stroke:none;stroke-width:0.04105"
       d="m 5.0,0.6 0.2,0.4 H 4.8 Z"
       id="path11-2-3"
       inkscape:label="triangle"
       sodipodi:nodetypes="cccc" />
  </g>
  <g
     inkscape:groupmode="layer"
     id="layer1"
     inkscape:label="l_survey_cave">
    <rect
       style="fill:#ffa500;fill-opacity:0.5"
       id="rect2"
       width="1"
       height="0.4"
       x="4.5"
       y="1"
       inkscape:label="U_out" />
    <rect
       style="fill:#00ff00;fill-opacity:0.5"
       id="rect4"
       width="1.0"
       height="0.4"
       x="4.5"
       y="0.6"
       inkscape:label="U_in" />
    <path
       style="fill:none;stroke:#008000;stroke-width:0.08;stroke-dasharray:0,0.16"
       d="m 4.5,1 h 1"
       id="path11"
       inkscape:label="P"
       sodipodi:nodetypes="cc" />
  </g>
  <g
     transform="translate(3,3)"
     inkscape:label="p_u_waterflow"
     inkscape:groupmode="layer"
     id="g3">
    <rect
       class="U"
       width="0.3"
       height="1"
       inkscape:label="U"
       x="-0.15"
       y="-0.5"
       id="rect1" />
    <g
       id="g2">
      <path
         d="M 0,0.5 C 0,0.35 -0.1,0.4 -0.1,0.3 -0.1,0.2 0.1,0.25 0.1,0.15 0.1,0.05 -0.1,0.1 -0.1,0 c 0,-0.1 0.2,-0.05 0.2,-0.15 0,-0.1 -0.1,0 -0.1,-0.25"
         style="fill:none;stroke:#0000ff;stroke-width:0.05;stroke-dasharray:0.005,0.06"
         id="path1"
         sodipodi:nodetypes="cccscc" />
      <path
         d="M 0.08,-0.31 0,-0.5 -0.08,-0.31 Z"
         style="fill:#0000ff;stroke:#0000ff;stroke-width:0.05"
         id="path2"
         sodipodi:nodetypes="cccc" />
    </g>
  </g>
  <g
     transform="translate(3,1)"
     inkscape:label="p_u_smiley"
     inkscape:groupmode="layer"
     id="g12">
    <rect
       class="U"
       width="0.8"
       height="0.8"
       x="-0.4"
       y="-0.4"
       inkscape:label="U"
       id="rect11" />
    <circle
       style="fill:#ffff00;stroke:#008000;stroke-width:0.05"
       id="path13"
       r="0.4" />
    <path
       id="path14"
       style="fill:none;stroke:#008000;stroke-width:0.05"
       d="M 0.2,0.1 C 0.18,0.2 0.1,0.25 0,0.25 -0.1,0.25 -0.18,0.2 -0.2,0.1" />
    <ellipse
       style="fill:none;stroke:#008000;stroke-width:0.05"
       id="path16"
       cx="0.15"
       cy="-0.15"
       rx="0.03"
       ry="0.05" />
    <ellipse
       style="fill:none;stroke:#008000;stroke-width:0.05"
       id="ellipse16"
       cx="-0.15"
       cy="-0.15"
       rx="0.03"
       ry="0.05" />
  </g>
  <g
     transform="matrix(0.99999,0,0,0.99999,0.99999,3.0001)"
     inkscape:label="p_blocks_UIS"
     inkscape:groupmode="layer"
     id="g11">
    <rect
       class="U"
       width="1"
       height="1"
       x="-0.5"
       y="-0.5"
       inkscape:label="U"
       id="rect3" />
    <g
       id="g10">
      <path
         d="M -0.5,0.5 0.3,0.4 -0.17,-0.2 Z"
         style="fill:none;stroke:#000000;stroke-width:0.05"
         id="path3" />
      <path
         d="M 0.25,0.25 0.5,0.15 0.3,-0.5 h -0.4 z"
         style="fill:none;stroke:#000000;stroke-width:0.05"
         id="path4" />
      <path
         d="M -0.27,0 -0.1,-0.3 -0.5,-0.35 Z"
         style="fill:none;stroke:#000000;stroke-width:0.05"
         id="path5" />
      <path
         d="M -0.5,0.5 -0.1,0.2 -0.17,-0.2"
         style="fill:none;stroke:#000000;stroke-width:0.035"
         id="path6" />
      <path
         d="M -0.1,0.2 0.3,0.4"
         style="fill:none;stroke:#000000;stroke-width:0.035"
         id="path7" />
      <path
         d="M 0.25,0.25 0.3,0 0.2,-0.2 -0.1,-0.5"
         style="fill:none;stroke:#000000;stroke-width:0.035"
         id="path8" />
      <path
         d="M 0.3,-0.5 0.2,-0.2"
         style="fill:none;stroke:#000000;stroke-width:0.035"
         id="path9" />
      <path
         d="M 0.5,0.15 0.3,0"
         style="fill:none;stroke:#000000;stroke-width:0.035"
         id="path10" />
    </g>
  </g>
  <g
     transform="translate(1,1)"
     inkscape:label="p_stalactite_UIS"
     inkscape:groupmode="layer"
     id="g13">
    <rect
       class="U"
       width="0.3"
       height="0.8"
       x="-0.15"
       y="-0.4"
       inkscape:label="U"
       id="rect12" />
    <path
       style="fill:none;stroke:#000000;stroke-width:0.05"
       d="M 0,0.4 V -0.15 L -0.15,-0.4 M 0,-0.15 0.15,-0.4"
       id="path12" />
  </g>
</svg>
